HIERARCHY
ROOT joint_Root
{
	OFFSET 0.0 0.0 0.0
	CHANNELS 6 Xposition Yposition Zposition Zrotation Xrotation Yrotation 
	JOINT Hips
	{
		OFFSET 4.5925 91.4895 -427.239
		CHANNELS 6 Xposition Yposition Zposition Zrotation Xrotation Yrotation 
		JOINT Spine
		{
			OFFSET 15.7357 0.0 0.0
			CHANNELS 6 Xposition Yposition Zposition Zrotation Xrotation Yrotation 
			JOINT Chest
			{
				OFFSET 8.98455 -0.406207 0.0
				CHANNELS 6 Xposition Yposition Zposition Zrotation Xrotation Yrotation 
				JOINT Neck
				{
					OFFSET 16.3773 0.0 0.0
					CHANNELS 6 Xposition Yposition Zposition Zrotation Xrotation Yrotation 
					JOINT Head
					{
						OFFSET 6.45672 0.0 0.0
						CHANNELS 6 Xposition Yposition Zposition Zrotation Xrotation Yrotation 
						End Site
						{
							OFFSET 0.0 0.0 0.0
						}
					}
				}
				JOINT Shoulder_L
				{
					OFFSET 12.9942 -0.242716 4.98039
					CHANNELS 6 Xposition Yposition Zposition Zrotation Xrotation Yrotation 
					JOINT UpperArm_L
					{
						OFFSET 5.34809 0.0 0.0
						CHANNELS 6 Xposition Yposition Zposition Zrotation Xrotation Yrotation 
						JOINT LowerArm_L
						{
							OFFSET 24.3286 1.87007e-05 0.0
							CHANNELS 6 Xposition Yposition Zposition Zrotation Xrotation Yrotation 
							JOINT Hand_L
							{
								OFFSET 22.2916 0.0 0.0
								CHANNELS 6 Xposition Yposition Zposition Zrotation Xrotation Yrotation 
								End Site
								{
									OFFSET 0.0 0.0 0.0
								}
							}
						}
					}
				}
				JOINT Shoulder_R
				{
					OFFSET 12.9945 -0.242716 -4.98039
					CHANNELS 6 Xposition Yposition Zposition Zrotation Xrotation Yrotation 
					JOINT UpperArm_R
					{
						OFFSET -5.34813 0.0 0.0
						CHANNELS 6 Xposition Yposition Zposition Zrotation Xrotation Yrotation 
						JOINT LowerArm_R
						{
							OFFSET -24.3289 0.000322201 0.0
							CHANNELS 6 Xposition Yposition Zposition Zrotation Xrotation Yrotation 
							JOINT Hand_R
							{
								OFFSET -22.2915 -0.000108084 0.0
								CHANNELS 6 Xposition Yposition Zposition Zrotation Xrotation Yrotation 
								End Site
								{
									OFFSET 0.0 0.0 0.0
								}
							}
						}
					}
				}
			}
		}
		JOINT UpperLeg_L
		{
			OFFSET -2.19248 -6.46944 0.0
			CHANNELS 6 Xposition Yposition Zposition Zrotation Xrotation Yrotation 
			JOINT LowerLeg_L
			{
				OFFSET 39.0811 0.0 -1.23785e-05
				CHANNELS 6 Xposition Yposition Zposition Zrotation Xrotation Yrotation 
				JOINT Foot_L
				{
					OFFSET 40.9854 0.0 -1.26872e-05
					CHANNELS 6 Xposition Yposition Zposition Zrotation Xrotation Yrotation 
					JOINT Toes_L
					{
						OFFSET 11.7543 0.0 0.0
						CHANNELS 6 Xposition Yposition Zposition Zrotation Xrotation Yrotation 
						End Site
						{
							OFFSET 0.0 0.0 0.0
						}
					}
				}
			}
		}
		JOINT UpperLeg_R
		{
			OFFSET -2.19251 6.46944 0.0
			CHANNELS 6 Xposition Yposition Zposition Zrotation Xrotation Yrotation 
			JOINT LowerLeg_R
			{
				OFFSET -39.0811 -0.00228153 -0.0401928
				CHANNELS 6 Xposition Yposition Zposition Zrotation Xrotation Yrotation 
				JOINT Foot_R
				{
					OFFSET -40.9854 0.0 0.0
					CHANNELS 6 Xposition Yposition Zposition Zrotation Xrotation Yrotation 
					JOINT Toes_R
					{
						OFFSET -11.7543 0.0 0.0
						CHANNELS 6 Xposition Yposition Zposition Zrotation Xrotation Yrotation 
						End Site
						{
							OFFSET 0.0 0.0 0.0
						}
					}
				}
			}
		}
	}
}
MOTION
Frames:	6
Frame Time:	0.0333333
0.000000 0.000000 0.000000 0.000000 0.000000 -0.000000 2.681460 88.833700 489.348000 -86.861800 -3.198510 178.704000 15.735700 0.000005 -0.000001 61.546600 83.898200 -59.906400 8.984550 -0.406207 -0.000000 3.063900 -5.875770 3.436470 16.377300 -0.000001 -0.000001 -3.808270 -2.715350 0.499033 6.456720 -0.000001 -0.000000 -12.629300 0.795723 -0.788031 12.994200 -0.242716 4.980390 -90.633700 2.492080 -75.728200 5.348090 -0.000007 -0.000001 -52.421200 35.913000 -37.171600 24.328600 0.000019 0.000005 13.192100 12.301900 -47.730100 22.291600 -0.000001 0.000005 15.750300 5.290360 0.340705 12.994500 -0.242716 -4.980390 87.904300 9.853160 -77.929600 -5.348130 -0.000001 -0.000004 -69.642000 20.905200 9.334240 -24.328900 0.000322 -0.000009 0.646476 3.704540 -9.925560 -22.291500 -0.000108 -0.000004 14.401500 5.320680 -0.515425 -2.192480 -6.469440 -0.000000 -177.826000 -7.079600 2.617100 39.081100 -0.000007 -0.000012 0.015172 -0.025495 30.755100 40.985400 -0.000006 -0.000013 5.993980 1.358360 -74.923300 11.754300 -0.000000 0.000003 -0.016019 -0.144152 -22.459900 -2.192510 6.469440 -0.000001 -174.142000 10.553100 149.089000 -39.081100 -0.002282 -0.040193 0.035537 -0.047710 34.052400 -40.985400 0.000008 0.000006 1.852030 5.847650 -60.185500 -11.754300 -0.000006 -0.000006 -0.018986 -0.161608 -23.173900
0.000000 0.000000 0.000000 0.000000 0.000000 -0.000000 2.883710 88.120100 485.949000 -86.953100 -3.677890 178.798000 15.735700 0.000005 -0.000001 61.550300 83.802800 -59.761600 8.984550 -0.406207 -0.000000 3.242540 -5.968720 3.745030 16.377300 -0.000001 -0.000001 -3.502530 -2.676610 0.787080 6.456720 -0.000001 -0.000000 -12.711100 0.602178 -0.072655 12.994200 -0.242716 4.980390 -90.673500 2.593310 -75.435600 5.348090 -0.000007 -0.000001 -51.861700 36.788600 -37.343400 24.328600 0.000019 0.000005 13.805700 11.878700 -50.047800 22.291600 -0.000001 0.000005 16.048700 5.282990 0.544489 12.994500 -0.242716 -4.980390 87.832700 10.304400 -78.054400 -5.348130 -0.000001 -0.000004 -69.681000 20.247100 9.675940 -24.328900 0.000322 -0.000009 0.617370 4.553480 -7.745710 -22.291500 -0.000108 -0.000004 14.340400 5.300520 0.057683 -2.192480 -6.469440 -0.000000 -176.974000 -7.310630 4.075130 39.081100 -0.000007 -0.000012 0.014184 -0.022274 32.486100 40.985400 -0.000006 -0.000013 5.519990 2.506230 -74.877600 11.754300 -0.000000 0.000003 -0.033720 -0.234045 -26.174800 -2.192510 6.469440 -0.000001 -172.073000 11.992400 147.484000 -39.081100 -0.002282 -0.040193 0.051668 -0.067781 35.517100 -40.985400 0.000008 0.000006 5.789100 5.507780 -59.056500 -11.754300 -0.000006 -0.000006 -0.017541 -0.153268 -22.830800
0.000000 0.000000 0.000000 0.000000 0.000000 -0.000000 3.025960 87.260700 481.853000 -87.032200 -4.569520 179.273000 15.735700 0.000005 -0.000001 60.254600 83.747300 -58.288000 8.984550 -0.406207 -0.000000 3.219310 -6.275920 4.108620 16.377300 -0.000001 -0.000001 -2.737560 -2.681720 0.944006 6.456720 -0.000001 -0.000000 -12.200900 0.365120 0.495392 12.994200 -0.242716 4.980390 -90.733500 2.740060 -75.007600 5.348090 -0.000007 -0.000001 -52.069600 38.274300 -36.517600 24.328600 0.000019 0.000005 13.817000 11.676700 -50.548200 22.291600 -0.000001 0.000005 16.011400 5.304760 -0.061615 12.994500 -0.242716 -4.980390 87.671700 10.907100 -77.872700 -5.348130 -0.000001 -0.000004 -69.387400 20.497800 9.723970 -24.328900 0.000322 -0.000009 0.569254 5.718340 -5.708090 -22.291500 -0.000108 -0.000004 14.008500 5.277990 0.682499 -2.192480 -6.469440 -0.000000 -175.861000 -7.247930 5.622510 39.081100 -0.000007 -0.000012 0.012187 -0.017176 35.354900 40.985400 -0.000006 -0.000013 4.888910 4.130400 -73.848800 11.754300 -0.000000 0.000003 -0.069994 -0.362980 -31.606900 -2.192510 6.469440 -0.000001 -172.819000 10.317200 147.266000 -39.081100 -0.002282 -0.040193 -0.131364 0.153816 41.196700 -40.985400 0.000008 0.000006 6.518470 3.529920 -60.688700 -11.754300 -0.000006 -0.000006 -0.012037 -0.118274 -21.394700
0.000000 0.000000 0.000000 0.000000 0.000000 -0.000000 3.173630 86.510000 477.346000 -86.965800 -6.150380 -179.694000 15.735700 0.000005 -0.000001 58.323900 83.600500 -56.112200 8.984550 -0.406207 -0.000000 3.281580 -6.800200 4.617740 16.377300 -0.000001 -0.000001 -1.974190 -2.935410 0.986439 6.456720 -0.000001 -0.000000 -11.294900 0.104473 1.053140 12.994200 -0.242716 4.980390 -90.878400 3.213860 -74.705000 5.348090 -0.000007 -0.000001 -52.480000 40.424300 -34.953200 24.328600 0.000019 0.000005 13.965100 12.225100 -49.586300 22.291600 -0.000001 0.000005 15.603900 5.312410 -0.279866 12.994500 -0.242716 -4.980390 87.352100 11.786300 -77.242900 -5.348130 -0.000001 -0.000004 -68.451400 20.924100 9.408920 -24.328900 0.000322 -0.000009 0.573067 7.271270 -4.527610 -22.291500 -0.000108 -0.000004 13.195000 5.251800 1.386160 -2.192480 -6.469440 -0.000000 -174.187000 -7.047980 6.149440 39.081100 -0.000007 -0.000012 0.019708 -0.023089 40.480400 40.985400 -0.000006 -0.000013 4.378340 6.023410 -69.863500 11.754300 -0.000000 0.000003 -0.155686 -0.565855 -40.544700 -2.192510 6.469440 -0.000001 -173.775000 7.709900 148.907000 -39.081100 -0.002282 -0.040193 -0.272328 0.259673 46.703300 -40.985400 0.000008 0.000006 5.288070 -1.082520 -66.413400 -11.754300 -0.000006 -0.000006 -0.006160 -0.072283 -19.515000
0.000000 0.000000 0.000000 0.000000 0.000000 -0.000000 3.283320 86.095800 472.992000 -86.927800 -7.539270 -177.803000 15.735700 0.000005 -0.000001 58.927700 83.226300 -56.508400 8.984550 -0.406207 -0.000000 4.016790 -7.061270 5.086020 16.377300 -0.000001 -0.000001 -1.351490 -3.284460 1.153540 6.456720 -0.000001 -0.000000 -10.660600 -0.150200 1.701680 12.994200 -0.242716 4.980390 -91.000000 3.676950 -74.774700 5.348090 -0.000007 -0.000001 -54.809000 42.094400 -32.057200 24.328600 0.000019 0.000005 13.990800 13.615300 -46.626900 22.291600 -0.000001 0.000005 15.176300 5.320880 -0.521478 12.994500 -0.242716 -4.980390 87.094700 12.514700 -76.818600 -5.348130 -0.000001 -0.000004 -67.308000 21.211100 8.298950 -24.328900 0.000322 -0.000009 0.613050 7.955950 -4.427750 -22.291500 -0.000108 -0.000004 12.198800 5.240600 1.680320 -2.192480 -6.469440 -0.000000 -172.525000 -7.031360 4.669420 39.081100 -0.000007 -0.000012 0.053908 -0.047315 48.724400 40.985400 -0.000006 -0.000013 4.287040 7.540570 -61.336000 11.754300 -0.000000 0.000003 -0.225266 -0.685522 -46.159300 -2.192510 6.469440 -0.000001 -174.011000 8.182500 152.712000 -39.081100 -0.002282 -0.040193 -0.330918 0.284806 49.560000 -40.985400 0.000008 0.000006 5.277010 -2.631600 -71.210100 -11.754300 -0.000006 -0.000006 -0.003607 -0.047286 -18.496400
0.000000 0.000000 0.000000 0.000000 0.000000 -0.000000 3.371430 85.949900 469.141000 -87.032400 -8.844450 -176.073000 15.735700 0.000005 -0.000001 61.683700 82.929700 -59.203600 8.984550 -0.406207 -0.000000 4.861010 -6.757630 5.246410 16.377300 -0.000001 -0.000001 -1.203750 -3.717360 1.835790 6.456720 -0.000001 -0.000000 -10.030000 -1.025970 2.706370 12.994200 -0.242716 4.980390 -90.965200 3.624520 -75.078200 5.348090 -0.000007 -0.000001 -57.425400 43.943200 -30.122900 24.328600 0.000019 0.000005 12.594900 14.949400 -40.895700 22.291600 -0.000001 0.000005 14.646300 5.317060 -0.409475 12.994500 -0.242716 -4.980390 86.952500 12.791000 -76.478600 -5.348130 -0.000001 -0.000004 -66.601500 21.595300 6.578730 -24.328900 0.000322 -0.000009 0.698128 7.110540 -5.633760 -22.291500 -0.000108 -0.000004 11.691900 5.247540 1.497650 -2.192480 -6.469440 -0.000000 -172.079000 -5.337620 0.509110 39.081100 -0.000007 -0.000012 0.077969 -0.047481 58.657400 40.985400 -0.000006 -0.000013 2.233050 6.339150 -50.966200 11.754300 -0.000000 0.000003 -0.100624 -0.446115 -35.199400 -2.192510 6.469440 -0.000001 -174.445000 10.373200 157.057000 -39.081100 -0.002282 -0.040193 -0.381572 0.317427 50.482100 -40.985400 0.000008 0.000006 5.452950 -2.403650 -74.890700 -11.754300 -0.000006 -0.000006 -0.002413 -0.033770 -17.946300
